<mxfile host="app.diagrams.net" modified="2021-09-24T05:21:11.902Z" agent="5.0 (Windows NT 10.0; Win64; x64) AppleWebKit/537.36 (KHTML, like Gecko) Chrome/92.0.4515.159 Safari/537.36" etag="JNyp0eFOOo0sBZ_tdevP" version="15.2.7" type="github" pages="7">
  <diagram id="JIe8NJO4PfeCDfPx7Qfq" name="主从复制(全量复制)流程图">
    <mxGraphModel dx="1958" dy="594" grid="1" gridSize="10" guides="1" tooltips="1" connect="1" arrows="1" fold="1" page="1" pageScale="1" pageWidth="827" pageHeight="1169" math="0" shadow="0">
      <root>
        <mxCell id="0" />
        <mxCell id="1" parent="0" />
        <mxCell id="rbrHG2hcrSsxspbt_c55-1" value="" style="rounded=0;whiteSpace=wrap;html=1;fillColor=#F8CECC;strokeWidth=2;" parent="1" vertex="1">
          <mxGeometry x="90" y="180" width="220" height="390" as="geometry" />
        </mxCell>
        <mxCell id="rbrHG2hcrSsxspbt_c55-2" value="Master" style="text;html=1;strokeColor=none;fillColor=none;align=center;verticalAlign=middle;whiteSpace=wrap;rounded=0;" parent="1" vertex="1">
          <mxGeometry x="180" y="180" width="40" height="20" as="geometry" />
        </mxCell>
        <mxCell id="rbrHG2hcrSsxspbt_c55-3" value="rdb数据" style="rounded=0;whiteSpace=wrap;html=1;strokeWidth=2;fillColor=#97D077;" parent="1" vertex="1">
          <mxGeometry x="115" y="240" width="170" height="80" as="geometry" />
        </mxCell>
        <mxCell id="rbrHG2hcrSsxspbt_c55-17" style="edgeStyle=orthogonalEdgeStyle;rounded=0;orthogonalLoop=1;jettySize=auto;html=1;exitX=1;exitY=0.5;exitDx=0;exitDy=0;strokeWidth=2;" parent="1" source="rbrHG2hcrSsxspbt_c55-4" edge="1">
          <mxGeometry relative="1" as="geometry">
            <mxPoint x="598" y="430" as="targetPoint" />
            <Array as="points">
              <mxPoint x="598" y="430" />
            </Array>
          </mxGeometry>
        </mxCell>
        <mxCell id="rbrHG2hcrSsxspbt_c55-18" value="5、发送buffer缓存中的操作命令" style="edgeLabel;html=1;align=center;verticalAlign=middle;resizable=0;points=[];" parent="rbrHG2hcrSsxspbt_c55-17" vertex="1" connectable="0">
          <mxGeometry x="-0.11" y="1" relative="1" as="geometry">
            <mxPoint as="offset" />
          </mxGeometry>
        </mxCell>
        <mxCell id="rbrHG2hcrSsxspbt_c55-4" value="repl buffer" style="rounded=0;whiteSpace=wrap;html=1;strokeWidth=2;fillColor=#97D077;" parent="1" vertex="1">
          <mxGeometry x="115" y="390" width="170" height="80" as="geometry" />
        </mxCell>
        <mxCell id="rbrHG2hcrSsxspbt_c55-5" value="" style="rounded=0;whiteSpace=wrap;html=1;fillColor=#F8CECC;strokeWidth=2;" parent="1" vertex="1">
          <mxGeometry x="600" y="180" width="220" height="390" as="geometry" />
        </mxCell>
        <mxCell id="rbrHG2hcrSsxspbt_c55-6" value="Slave" style="text;html=1;strokeColor=none;fillColor=none;align=center;verticalAlign=middle;whiteSpace=wrap;rounded=0;" parent="1" vertex="1">
          <mxGeometry x="680" y="180" width="40" height="20" as="geometry" />
        </mxCell>
        <mxCell id="rbrHG2hcrSsxspbt_c55-7" value="" style="endArrow=classic;html=1;exitX=-0.013;exitY=0.074;exitDx=0;exitDy=0;exitPerimeter=0;entryX=1;entryY=0.074;entryDx=0;entryDy=0;entryPerimeter=0;strokeWidth=2;" parent="1" source="rbrHG2hcrSsxspbt_c55-5" target="rbrHG2hcrSsxspbt_c55-1" edge="1">
          <mxGeometry width="50" height="50" relative="1" as="geometry">
            <mxPoint x="410" y="170" as="sourcePoint" />
            <mxPoint x="460" y="120" as="targetPoint" />
          </mxGeometry>
        </mxCell>
        <mxCell id="rbrHG2hcrSsxspbt_c55-8" value="1、发送PSYNC命令同步数据&lt;br&gt;在同步数据之前会首先建立socket长连接" style="edgeLabel;html=1;align=center;verticalAlign=middle;resizable=0;points=[];" parent="rbrHG2hcrSsxspbt_c55-7" vertex="1" connectable="0">
          <mxGeometry x="-0.0613" y="-2" relative="1" as="geometry">
            <mxPoint as="offset" />
          </mxGeometry>
        </mxCell>
        <mxCell id="rbrHG2hcrSsxspbt_c55-9" style="edgeStyle=orthogonalEdgeStyle;rounded=0;orthogonalLoop=1;jettySize=auto;html=1;exitX=0;exitY=0.25;exitDx=0;exitDy=0;strokeWidth=2;" parent="1" source="rbrHG2hcrSsxspbt_c55-1" edge="1">
          <mxGeometry relative="1" as="geometry">
            <mxPoint x="170" y="240" as="targetPoint" />
            <Array as="points">
              <mxPoint x="20" y="273" />
              <mxPoint x="20" y="110" />
              <mxPoint x="170" y="110" />
            </Array>
          </mxGeometry>
        </mxCell>
        <mxCell id="rbrHG2hcrSsxspbt_c55-10" value="2.1、收到PSYNC同步命令&lt;br&gt;执行bgsave来生成最新的&lt;br&gt;rdb快照数据" style="edgeLabel;html=1;align=center;verticalAlign=middle;resizable=0;points=[];" parent="rbrHG2hcrSsxspbt_c55-9" vertex="1" connectable="0">
          <mxGeometry x="0.214" y="2" relative="1" as="geometry">
            <mxPoint x="-68" y="32" as="offset" />
          </mxGeometry>
        </mxCell>
        <mxCell id="rbrHG2hcrSsxspbt_c55-11" style="edgeStyle=orthogonalEdgeStyle;rounded=0;orthogonalLoop=1;jettySize=auto;html=1;exitX=0;exitY=0.5;exitDx=0;exitDy=0;strokeWidth=2;" parent="1" source="rbrHG2hcrSsxspbt_c55-4" target="rbrHG2hcrSsxspbt_c55-4" edge="1">
          <mxGeometry relative="1" as="geometry">
            <Array as="points">
              <mxPoint x="10" y="430" />
              <mxPoint x="10" y="630" />
              <mxPoint x="200" y="630" />
            </Array>
          </mxGeometry>
        </mxCell>
        <mxCell id="rbrHG2hcrSsxspbt_c55-12" value="2.2、在master生成rdb快照期间&lt;br&gt;将新的修改的数据，其实就是一些&lt;br&gt;数据操作命令，缓存起来" style="edgeLabel;html=1;align=center;verticalAlign=middle;resizable=0;points=[];" parent="rbrHG2hcrSsxspbt_c55-11" vertex="1" connectable="0">
          <mxGeometry x="-0.177" relative="1" as="geometry">
            <mxPoint as="offset" />
          </mxGeometry>
        </mxCell>
        <mxCell id="rbrHG2hcrSsxspbt_c55-13" value="" style="endArrow=classic;html=1;strokeWidth=2;exitX=1.005;exitY=0.276;exitDx=0;exitDy=0;exitPerimeter=0;entryX=0.009;entryY=0.281;entryDx=0;entryDy=0;entryPerimeter=0;" parent="1" source="rbrHG2hcrSsxspbt_c55-1" target="rbrHG2hcrSsxspbt_c55-5" edge="1">
          <mxGeometry width="50" height="50" relative="1" as="geometry">
            <mxPoint x="440" y="400" as="sourcePoint" />
            <mxPoint x="490" y="350" as="targetPoint" />
          </mxGeometry>
        </mxCell>
        <mxCell id="rbrHG2hcrSsxspbt_c55-14" value="3、发送生成的rdb快照数据" style="edgeLabel;html=1;align=center;verticalAlign=middle;resizable=0;points=[];" parent="rbrHG2hcrSsxspbt_c55-13" vertex="1" connectable="0">
          <mxGeometry x="-0.1225" y="1" relative="1" as="geometry">
            <mxPoint as="offset" />
          </mxGeometry>
        </mxCell>
        <mxCell id="rbrHG2hcrSsxspbt_c55-15" value="" style="endArrow=classic;html=1;strokeWidth=2;exitX=-0.004;exitY=0.403;exitDx=0;exitDy=0;exitPerimeter=0;edgeStyle=orthogonalEdgeStyle;" parent="1" source="rbrHG2hcrSsxspbt_c55-5" edge="1">
          <mxGeometry width="50" height="50" relative="1" as="geometry">
            <mxPoint x="510" y="380" as="sourcePoint" />
            <mxPoint x="599" y="380" as="targetPoint" />
            <Array as="points">
              <mxPoint x="540" y="329" />
              <mxPoint x="540" y="380" />
            </Array>
          </mxGeometry>
        </mxCell>
        <mxCell id="rbrHG2hcrSsxspbt_c55-16" value="4、清空数据，并加载主节&lt;br&gt;点同步过来的rdb快照数据" style="edgeLabel;html=1;align=center;verticalAlign=middle;resizable=0;points=[];" parent="rbrHG2hcrSsxspbt_c55-15" vertex="1" connectable="0">
          <mxGeometry x="-0.0803" y="-1" relative="1" as="geometry">
            <mxPoint y="2" as="offset" />
          </mxGeometry>
        </mxCell>
        <mxCell id="rbrHG2hcrSsxspbt_c55-19" value="" style="endArrow=classic;html=1;strokeWidth=2;exitX=-0.012;exitY=0.723;exitDx=0;exitDy=0;exitPerimeter=0;edgeStyle=orthogonalEdgeStyle;" parent="1" source="rbrHG2hcrSsxspbt_c55-5" edge="1">
          <mxGeometry width="50" height="50" relative="1" as="geometry">
            <mxPoint x="490" y="510" as="sourcePoint" />
            <mxPoint x="597" y="520" as="targetPoint" />
            <Array as="points">
              <mxPoint x="540" y="462" />
              <mxPoint x="540" y="520" />
            </Array>
          </mxGeometry>
        </mxCell>
        <mxCell id="rbrHG2hcrSsxspbt_c55-20" value="6、执行buffer中的写命令到缓存中" style="edgeLabel;html=1;align=center;verticalAlign=middle;resizable=0;points=[];" parent="rbrHG2hcrSsxspbt_c55-19" vertex="1" connectable="0">
          <mxGeometry x="-0.1139" y="-2" relative="1" as="geometry">
            <mxPoint as="offset" />
          </mxGeometry>
        </mxCell>
        <mxCell id="rbrHG2hcrSsxspbt_c55-26" value="" style="endArrow=classic;html=1;strokeWidth=2;entryX=-0.012;entryY=0.98;entryDx=0;entryDy=0;entryPerimeter=0;exitX=0.996;exitY=0.982;exitDx=0;exitDy=0;exitPerimeter=0;" parent="1" source="rbrHG2hcrSsxspbt_c55-1" target="rbrHG2hcrSsxspbt_c55-5" edge="1">
          <mxGeometry width="50" height="50" relative="1" as="geometry">
            <mxPoint x="310" y="562" as="sourcePoint" />
            <mxPoint x="410" y="550" as="targetPoint" />
          </mxGeometry>
        </mxCell>
        <mxCell id="rbrHG2hcrSsxspbt_c55-27" value="7、master通过socket长连接持续把写命令&lt;br&gt;发送给从节点，保证主从数据的一致性" style="edgeLabel;html=1;align=center;verticalAlign=middle;resizable=0;points=[];" parent="rbrHG2hcrSsxspbt_c55-26" vertex="1" connectable="0">
          <mxGeometry x="-0.1219" relative="1" as="geometry">
            <mxPoint as="offset" />
          </mxGeometry>
        </mxCell>
      </root>
    </mxGraphModel>
  </diagram>
  <diagram id="5mzJCpqkuLQu6e3D8To6" name="主从复制(部分复制，端点续传)流程图">
    <mxGraphModel dx="1958" dy="594" grid="1" gridSize="10" guides="1" tooltips="1" connect="1" arrows="1" fold="1" page="1" pageScale="1" pageWidth="827" pageHeight="1169" math="0" shadow="0">
      <root>
        <mxCell id="p-8Ig2HTG_j2djmtFjmN-0" />
        <mxCell id="p-8Ig2HTG_j2djmtFjmN-1" parent="p-8Ig2HTG_j2djmtFjmN-0" />
        <mxCell id="p-8Ig2HTG_j2djmtFjmN-2" value="" style="rounded=0;whiteSpace=wrap;html=1;strokeWidth=2;fillColor=#F8CECC;" parent="p-8Ig2HTG_j2djmtFjmN-1" vertex="1">
          <mxGeometry x="70" y="150" width="220" height="390" as="geometry" />
        </mxCell>
        <mxCell id="p-8Ig2HTG_j2djmtFjmN-3" value="Master" style="text;html=1;strokeColor=none;fillColor=none;align=center;verticalAlign=middle;whiteSpace=wrap;rounded=0;" parent="p-8Ig2HTG_j2djmtFjmN-1" vertex="1">
          <mxGeometry x="160" y="150" width="40" height="20" as="geometry" />
        </mxCell>
        <mxCell id="p-8Ig2HTG_j2djmtFjmN-4" value="" style="rounded=0;whiteSpace=wrap;html=1;strokeWidth=2;fillColor=#F8CECC;" parent="p-8Ig2HTG_j2djmtFjmN-1" vertex="1">
          <mxGeometry x="560" y="150" width="220" height="390" as="geometry" />
        </mxCell>
        <mxCell id="p-8Ig2HTG_j2djmtFjmN-5" value="Slave" style="text;html=1;strokeColor=none;fillColor=none;align=center;verticalAlign=middle;whiteSpace=wrap;rounded=0;" parent="p-8Ig2HTG_j2djmtFjmN-1" vertex="1">
          <mxGeometry x="650" y="150" width="40" height="20" as="geometry" />
        </mxCell>
        <mxCell id="p-8Ig2HTG_j2djmtFjmN-6" value="" style="endArrow=classic;html=1;strokeWidth=2;exitX=1;exitY=0.872;exitDx=0;exitDy=0;exitPerimeter=0;entryX=-0.016;entryY=0.87;entryDx=0;entryDy=0;entryPerimeter=0;" parent="p-8Ig2HTG_j2djmtFjmN-1" source="p-8Ig2HTG_j2djmtFjmN-2" target="p-8Ig2HTG_j2djmtFjmN-4" edge="1">
          <mxGeometry width="50" height="50" relative="1" as="geometry">
            <mxPoint x="430" y="90" as="sourcePoint" />
            <mxPoint x="480" y="40" as="targetPoint" />
          </mxGeometry>
        </mxCell>
        <mxCell id="p-8Ig2HTG_j2djmtFjmN-18" value="6、master通过socket长连接和slave保持连接&lt;br&gt;并且持续把写命令同步给从节点，保证主从&lt;br&gt;数据的一致性" style="edgeLabel;html=1;align=center;verticalAlign=middle;resizable=0;points=[];" parent="p-8Ig2HTG_j2djmtFjmN-6" vertex="1" connectable="0">
          <mxGeometry x="-0.1764" relative="1" as="geometry">
            <mxPoint x="14" as="offset" />
          </mxGeometry>
        </mxCell>
        <mxCell id="p-8Ig2HTG_j2djmtFjmN-7" value="" style="endArrow=classic;html=1;strokeWidth=2;exitX=-0.017;exitY=0.075;exitDx=0;exitDy=0;exitPerimeter=0;entryX=1.016;entryY=0.073;entryDx=0;entryDy=0;entryPerimeter=0;" parent="p-8Ig2HTG_j2djmtFjmN-1" source="p-8Ig2HTG_j2djmtFjmN-4" target="p-8Ig2HTG_j2djmtFjmN-2" edge="1">
          <mxGeometry width="50" height="50" relative="1" as="geometry">
            <mxPoint x="460" y="130" as="sourcePoint" />
            <mxPoint x="510" y="80" as="targetPoint" />
          </mxGeometry>
        </mxCell>
        <mxCell id="p-8Ig2HTG_j2djmtFjmN-8" value="1、断开连接" style="edgeLabel;html=1;align=center;verticalAlign=middle;resizable=0;points=[];" parent="p-8Ig2HTG_j2djmtFjmN-7" vertex="1" connectable="0">
          <mxGeometry x="0.1334" y="-2" relative="1" as="geometry">
            <mxPoint as="offset" />
          </mxGeometry>
        </mxCell>
        <mxCell id="p-8Ig2HTG_j2djmtFjmN-9" value="repl backlog&lt;br&gt;buffer" style="rounded=0;whiteSpace=wrap;html=1;strokeWidth=2;fillColor=#97D077;" parent="p-8Ig2HTG_j2djmtFjmN-1" vertex="1">
          <mxGeometry x="100" y="350" width="170" height="80" as="geometry" />
        </mxCell>
        <mxCell id="p-8Ig2HTG_j2djmtFjmN-10" style="edgeStyle=orthogonalEdgeStyle;rounded=0;orthogonalLoop=1;jettySize=auto;html=1;exitX=0;exitY=0.5;exitDx=0;exitDy=0;strokeWidth=2;" parent="p-8Ig2HTG_j2djmtFjmN-1" source="p-8Ig2HTG_j2djmtFjmN-9" target="p-8Ig2HTG_j2djmtFjmN-9" edge="1">
          <mxGeometry relative="1" as="geometry">
            <Array as="points">
              <mxPoint x="30" y="390" />
              <mxPoint x="30" y="590" />
              <mxPoint x="185" y="590" />
            </Array>
          </mxGeometry>
        </mxCell>
        <mxCell id="p-8Ig2HTG_j2djmtFjmN-11" value="2、master最近的数据缓存&lt;br&gt;其实就是一些写命令" style="edgeLabel;html=1;align=center;verticalAlign=middle;resizable=0;points=[];" parent="p-8Ig2HTG_j2djmtFjmN-10" vertex="1" connectable="0">
          <mxGeometry x="-0.2332" y="-3" relative="1" as="geometry">
            <mxPoint as="offset" />
          </mxGeometry>
        </mxCell>
        <mxCell id="p-8Ig2HTG_j2djmtFjmN-12" value="" style="endArrow=classic;html=1;strokeWidth=2;exitX=-0.02;exitY=0.178;exitDx=0;exitDy=0;exitPerimeter=0;entryX=1;entryY=0.178;entryDx=0;entryDy=0;entryPerimeter=0;" parent="p-8Ig2HTG_j2djmtFjmN-1" source="p-8Ig2HTG_j2djmtFjmN-4" target="p-8Ig2HTG_j2djmtFjmN-2" edge="1">
          <mxGeometry width="50" height="50" relative="1" as="geometry">
            <mxPoint x="440" y="100" as="sourcePoint" />
            <mxPoint x="490" y="50" as="targetPoint" />
          </mxGeometry>
        </mxCell>
        <mxCell id="p-8Ig2HTG_j2djmtFjmN-13" value="3、重新连接到master&lt;br&gt;建立的是socket长连接" style="edgeLabel;html=1;align=center;verticalAlign=middle;resizable=0;points=[];" parent="p-8Ig2HTG_j2djmtFjmN-12" vertex="1" connectable="0">
          <mxGeometry x="0.2038" y="-1" relative="1" as="geometry">
            <mxPoint as="offset" />
          </mxGeometry>
        </mxCell>
        <mxCell id="p-8Ig2HTG_j2djmtFjmN-14" value="" style="endArrow=classic;html=1;strokeWidth=2;" parent="p-8Ig2HTG_j2djmtFjmN-1" edge="1">
          <mxGeometry width="50" height="50" relative="1" as="geometry">
            <mxPoint x="556" y="280" as="sourcePoint" />
            <mxPoint x="292" y="280" as="targetPoint" />
            <Array as="points" />
          </mxGeometry>
        </mxCell>
        <mxCell id="p-8Ig2HTG_j2djmtFjmN-15" value="4、psync(offset)" style="edgeLabel;html=1;align=center;verticalAlign=middle;resizable=0;points=[];" parent="p-8Ig2HTG_j2djmtFjmN-14" vertex="1" connectable="0">
          <mxGeometry x="0.1611" relative="1" as="geometry">
            <mxPoint as="offset" />
          </mxGeometry>
        </mxCell>
        <mxCell id="p-8Ig2HTG_j2djmtFjmN-16" value="" style="endArrow=classic;html=1;strokeWidth=2;exitX=1;exitY=0.5;exitDx=0;exitDy=0;entryX=-0.02;entryY=0.611;entryDx=0;entryDy=0;entryPerimeter=0;" parent="p-8Ig2HTG_j2djmtFjmN-1" source="p-8Ig2HTG_j2djmtFjmN-9" target="p-8Ig2HTG_j2djmtFjmN-4" edge="1">
          <mxGeometry width="50" height="50" relative="1" as="geometry">
            <mxPoint x="310" y="420" as="sourcePoint" />
            <mxPoint x="490" y="50" as="targetPoint" />
          </mxGeometry>
        </mxCell>
        <mxCell id="p-8Ig2HTG_j2djmtFjmN-17" value="5、slave的offset如果在&lt;br&gt;repl backlog buffer中，则&lt;br&gt;master会将缓存中从slave&lt;br&gt;的offset之后的数据一次性&lt;br&gt;同步给slave节点，否则会全量同步" style="edgeLabel;html=1;align=center;verticalAlign=middle;resizable=0;points=[];" parent="p-8Ig2HTG_j2djmtFjmN-16" vertex="1" connectable="0">
          <mxGeometry x="-0.1194" y="2" relative="1" as="geometry">
            <mxPoint x="18" as="offset" />
          </mxGeometry>
        </mxCell>
      </root>
    </mxGraphModel>
  </diagram>
  <diagram id="NJT8VXo0Gd6L0EWyexdD" name="主从复制风暴架构调整">
    <mxGraphModel dx="1131" dy="594" grid="1" gridSize="10" guides="1" tooltips="1" connect="1" arrows="1" fold="1" page="1" pageScale="1" pageWidth="827" pageHeight="1169" math="0" shadow="0">
      <root>
        <mxCell id="Fq5teD8oAcoIZFXAcFlm-0" />
        <mxCell id="Fq5teD8oAcoIZFXAcFlm-1" parent="Fq5teD8oAcoIZFXAcFlm-0" />
        <mxCell id="Fq5teD8oAcoIZFXAcFlm-4" value="" style="edgeStyle=orthogonalEdgeStyle;rounded=0;orthogonalLoop=1;jettySize=auto;html=1;strokeWidth=2;" parent="Fq5teD8oAcoIZFXAcFlm-1" source="Fq5teD8oAcoIZFXAcFlm-2" target="Fq5teD8oAcoIZFXAcFlm-3" edge="1">
          <mxGeometry relative="1" as="geometry" />
        </mxCell>
        <mxCell id="Fq5teD8oAcoIZFXAcFlm-6" value="" style="edgeStyle=orthogonalEdgeStyle;rounded=0;orthogonalLoop=1;jettySize=auto;html=1;strokeWidth=2;" parent="Fq5teD8oAcoIZFXAcFlm-1" source="Fq5teD8oAcoIZFXAcFlm-2" target="Fq5teD8oAcoIZFXAcFlm-5" edge="1">
          <mxGeometry relative="1" as="geometry" />
        </mxCell>
        <mxCell id="Fq5teD8oAcoIZFXAcFlm-2" value="master" style="rounded=1;whiteSpace=wrap;html=1;strokeWidth=2;fillColor=#97D077;" parent="Fq5teD8oAcoIZFXAcFlm-1" vertex="1">
          <mxGeometry x="280" y="180" width="120" height="60" as="geometry" />
        </mxCell>
        <mxCell id="Fq5teD8oAcoIZFXAcFlm-3" value="slave" style="rounded=1;whiteSpace=wrap;html=1;strokeWidth=2;fillColor=#66B2FF;" parent="Fq5teD8oAcoIZFXAcFlm-1" vertex="1">
          <mxGeometry x="180" y="320" width="120" height="60" as="geometry" />
        </mxCell>
        <mxCell id="Fq5teD8oAcoIZFXAcFlm-8" value="" style="edgeStyle=orthogonalEdgeStyle;rounded=0;orthogonalLoop=1;jettySize=auto;html=1;strokeWidth=2;" parent="Fq5teD8oAcoIZFXAcFlm-1" source="Fq5teD8oAcoIZFXAcFlm-5" target="Fq5teD8oAcoIZFXAcFlm-7" edge="1">
          <mxGeometry relative="1" as="geometry" />
        </mxCell>
        <mxCell id="Fq5teD8oAcoIZFXAcFlm-10" value="" style="edgeStyle=orthogonalEdgeStyle;rounded=0;orthogonalLoop=1;jettySize=auto;html=1;strokeWidth=2;" parent="Fq5teD8oAcoIZFXAcFlm-1" source="Fq5teD8oAcoIZFXAcFlm-5" target="Fq5teD8oAcoIZFXAcFlm-9" edge="1">
          <mxGeometry relative="1" as="geometry" />
        </mxCell>
        <mxCell id="Fq5teD8oAcoIZFXAcFlm-5" value="slave" style="rounded=1;whiteSpace=wrap;html=1;strokeWidth=2;fillColor=#66B2FF;" parent="Fq5teD8oAcoIZFXAcFlm-1" vertex="1">
          <mxGeometry x="400" y="320" width="120" height="60" as="geometry" />
        </mxCell>
        <mxCell id="Fq5teD8oAcoIZFXAcFlm-7" value="slave" style="rounded=1;whiteSpace=wrap;html=1;strokeWidth=2;fillColor=#66B2FF;" parent="Fq5teD8oAcoIZFXAcFlm-1" vertex="1">
          <mxGeometry x="330" y="440" width="120" height="60" as="geometry" />
        </mxCell>
        <mxCell id="Fq5teD8oAcoIZFXAcFlm-9" value="slave" style="rounded=1;whiteSpace=wrap;html=1;strokeWidth=2;fillColor=#66B2FF;" parent="Fq5teD8oAcoIZFXAcFlm-1" vertex="1">
          <mxGeometry x="480" y="440" width="120" height="60" as="geometry" />
        </mxCell>
        <mxCell id="Fq5teD8oAcoIZFXAcFlm-11" value="" style="endArrow=classic;html=1;strokeWidth=2;edgeStyle=orthogonalEdgeStyle;curved=1;" parent="Fq5teD8oAcoIZFXAcFlm-1" edge="1">
          <mxGeometry width="50" height="50" relative="1" as="geometry">
            <mxPoint x="610" y="480" as="sourcePoint" />
            <mxPoint x="530" y="350" as="targetPoint" />
            <Array as="points">
              <mxPoint x="690" y="480" />
              <mxPoint x="690" y="350" />
            </Array>
          </mxGeometry>
        </mxCell>
        <mxCell id="Fq5teD8oAcoIZFXAcFlm-12" value="复制数据" style="edgeLabel;html=1;align=center;verticalAlign=middle;resizable=0;points=[];" parent="Fq5teD8oAcoIZFXAcFlm-11" vertex="1" connectable="0">
          <mxGeometry x="-0.1538" y="3" relative="1" as="geometry">
            <mxPoint as="offset" />
          </mxGeometry>
        </mxCell>
        <mxCell id="Fq5teD8oAcoIZFXAcFlm-13" value="" style="endArrow=classic;html=1;strokeWidth=2;edgeStyle=orthogonalEdgeStyle;curved=1;" parent="Fq5teD8oAcoIZFXAcFlm-1" edge="1">
          <mxGeometry width="50" height="50" relative="1" as="geometry">
            <mxPoint x="530" y="330" as="sourcePoint" />
            <mxPoint x="410" y="210" as="targetPoint" />
            <Array as="points">
              <mxPoint x="590" y="330" />
              <mxPoint x="590" y="210" />
            </Array>
          </mxGeometry>
        </mxCell>
        <mxCell id="Fq5teD8oAcoIZFXAcFlm-14" value="复制数据" style="edgeLabel;html=1;align=center;verticalAlign=middle;resizable=0;points=[];" parent="Fq5teD8oAcoIZFXAcFlm-13" vertex="1" connectable="0">
          <mxGeometry x="-0.197" y="12" relative="1" as="geometry">
            <mxPoint as="offset" />
          </mxGeometry>
        </mxCell>
      </root>
    </mxGraphModel>
  </diagram>
  <diagram id="m8hd9kfRPmxVmE04sbQZ" name="混合持久化文件格式">
    <mxGraphModel dx="1131" dy="594" grid="1" gridSize="10" guides="1" tooltips="1" connect="1" arrows="1" fold="1" page="1" pageScale="1" pageWidth="827" pageHeight="1169" math="0" shadow="0">
      <root>
        <mxCell id="fJU4eyrORz79Iy5mc1NI-0" />
        <mxCell id="fJU4eyrORz79Iy5mc1NI-1" parent="fJU4eyrORz79Iy5mc1NI-0" />
        <mxCell id="fJU4eyrORz79Iy5mc1NI-2" value="RDB格式" style="rounded=0;whiteSpace=wrap;html=1;strokeWidth=2;fillColor=#FFF4C3;" parent="fJU4eyrORz79Iy5mc1NI-1" vertex="1">
          <mxGeometry x="250" y="250" width="130" height="50" as="geometry" />
        </mxCell>
        <mxCell id="fJU4eyrORz79Iy5mc1NI-4" value="AOF格式" style="rounded=0;whiteSpace=wrap;html=1;strokeWidth=2;fillColor=#FFF4C3;" parent="fJU4eyrORz79Iy5mc1NI-1" vertex="1">
          <mxGeometry x="250" y="300" width="130" height="50" as="geometry" />
        </mxCell>
      </root>
    </mxGraphModel>
  </diagram>
  <diagram id="ix976UkHYHJuBCqXF_JA" name="哨兵高可用架构">
    <mxGraphModel dx="1131" dy="594" grid="1" gridSize="10" guides="1" tooltips="1" connect="1" arrows="1" fold="1" page="1" pageScale="1" pageWidth="827" pageHeight="1169" math="0" shadow="0">
      <root>
        <mxCell id="BN_XNQRyTks0l5K4xwSn-0" />
        <mxCell id="BN_XNQRyTks0l5K4xwSn-1" parent="BN_XNQRyTks0l5K4xwSn-0" />
        <mxCell id="BN_XNQRyTks0l5K4xwSn-22" style="edgeStyle=none;rounded=0;orthogonalLoop=1;jettySize=auto;html=1;exitX=0.5;exitY=1;exitDx=0;exitDy=0;entryX=0.5;entryY=0;entryDx=0;entryDy=0;startArrow=none;startFill=0;strokeWidth=2;" edge="1" parent="BN_XNQRyTks0l5K4xwSn-1" source="BN_XNQRyTks0l5K4xwSn-2" target="BN_XNQRyTks0l5K4xwSn-3">
          <mxGeometry relative="1" as="geometry" />
        </mxCell>
        <mxCell id="BN_XNQRyTks0l5K4xwSn-32" style="edgeStyle=orthogonalEdgeStyle;rounded=0;orthogonalLoop=1;jettySize=auto;html=1;exitX=1;exitY=0.5;exitDx=0;exitDy=0;entryX=0.5;entryY=0;entryDx=0;entryDy=0;startArrow=none;startFill=0;strokeWidth=2;" edge="1" parent="BN_XNQRyTks0l5K4xwSn-1" source="BN_XNQRyTks0l5K4xwSn-2" target="BN_XNQRyTks0l5K4xwSn-24">
          <mxGeometry relative="1" as="geometry" />
        </mxCell>
        <mxCell id="BN_XNQRyTks0l5K4xwSn-2" value="client" style="rounded=1;whiteSpace=wrap;html=1;fillColor=#97D077;strokeWidth=2;" vertex="1" parent="BN_XNQRyTks0l5K4xwSn-1">
          <mxGeometry x="145" y="150" width="110" height="40" as="geometry" />
        </mxCell>
        <mxCell id="BN_XNQRyTks0l5K4xwSn-19" value="" style="group" vertex="1" connectable="0" parent="BN_XNQRyTks0l5K4xwSn-1">
          <mxGeometry x="40" y="260" width="320" height="240" as="geometry" />
        </mxCell>
        <mxCell id="BN_XNQRyTks0l5K4xwSn-3" value="" style="rounded=0;whiteSpace=wrap;html=1;strokeWidth=2;fillColor=#FFF4C3;dashed=1;" vertex="1" parent="BN_XNQRyTks0l5K4xwSn-19">
          <mxGeometry width="320" height="240" as="geometry" />
        </mxCell>
        <mxCell id="BN_XNQRyTks0l5K4xwSn-12" value="sentinel" style="ellipse;whiteSpace=wrap;html=1;aspect=fixed;strokeWidth=2;fillColor=#E5CCFF;" vertex="1" parent="BN_XNQRyTks0l5K4xwSn-19">
          <mxGeometry x="120" y="10" width="60" height="60" as="geometry" />
        </mxCell>
        <mxCell id="BN_XNQRyTks0l5K4xwSn-17" style="rounded=0;orthogonalLoop=1;jettySize=auto;html=1;exitX=0.5;exitY=0;exitDx=0;exitDy=0;entryX=0.5;entryY=1;entryDx=0;entryDy=0;strokeWidth=2;startArrow=classic;startFill=1;" edge="1" parent="BN_XNQRyTks0l5K4xwSn-19" source="BN_XNQRyTks0l5K4xwSn-13" target="BN_XNQRyTks0l5K4xwSn-12">
          <mxGeometry relative="1" as="geometry" />
        </mxCell>
        <mxCell id="BN_XNQRyTks0l5K4xwSn-13" value="sentinel" style="ellipse;whiteSpace=wrap;html=1;aspect=fixed;strokeWidth=2;fillColor=#E5CCFF;" vertex="1" parent="BN_XNQRyTks0l5K4xwSn-19">
          <mxGeometry x="40" y="150" width="60" height="60" as="geometry" />
        </mxCell>
        <mxCell id="BN_XNQRyTks0l5K4xwSn-16" style="rounded=0;orthogonalLoop=1;jettySize=auto;html=1;exitX=0;exitY=0.5;exitDx=0;exitDy=0;strokeWidth=2;startArrow=classic;startFill=1;" edge="1" parent="BN_XNQRyTks0l5K4xwSn-19" source="BN_XNQRyTks0l5K4xwSn-14" target="BN_XNQRyTks0l5K4xwSn-13">
          <mxGeometry relative="1" as="geometry" />
        </mxCell>
        <mxCell id="BN_XNQRyTks0l5K4xwSn-14" value="sentinel" style="ellipse;whiteSpace=wrap;html=1;aspect=fixed;strokeWidth=2;fillColor=#E5CCFF;" vertex="1" parent="BN_XNQRyTks0l5K4xwSn-19">
          <mxGeometry x="210" y="150" width="60" height="60" as="geometry" />
        </mxCell>
        <mxCell id="BN_XNQRyTks0l5K4xwSn-15" style="rounded=0;orthogonalLoop=1;jettySize=auto;html=1;exitX=0.5;exitY=1;exitDx=0;exitDy=0;strokeWidth=2;startArrow=classic;startFill=1;entryX=0.5;entryY=0;entryDx=0;entryDy=0;" edge="1" parent="BN_XNQRyTks0l5K4xwSn-19" source="BN_XNQRyTks0l5K4xwSn-12" target="BN_XNQRyTks0l5K4xwSn-14">
          <mxGeometry relative="1" as="geometry" />
        </mxCell>
        <mxCell id="BN_XNQRyTks0l5K4xwSn-18" value="&lt;b&gt;&lt;font style=&quot;font-size: 15px&quot;&gt;哨兵集群&lt;/font&gt;&lt;/b&gt;" style="text;html=1;strokeColor=none;fillColor=none;align=center;verticalAlign=middle;whiteSpace=wrap;rounded=0;dashed=1;" vertex="1" parent="BN_XNQRyTks0l5K4xwSn-19">
          <mxGeometry x="10" y="10" width="80" height="20" as="geometry" />
        </mxCell>
        <mxCell id="BN_XNQRyTks0l5K4xwSn-27" style="edgeStyle=none;rounded=0;orthogonalLoop=1;jettySize=auto;html=1;exitX=0.5;exitY=1;exitDx=0;exitDy=0;entryX=0.5;entryY=0;entryDx=0;entryDy=0;startArrow=none;startFill=0;strokeWidth=2;" edge="1" parent="BN_XNQRyTks0l5K4xwSn-1" source="BN_XNQRyTks0l5K4xwSn-24" target="BN_XNQRyTks0l5K4xwSn-25">
          <mxGeometry relative="1" as="geometry" />
        </mxCell>
        <mxCell id="BN_XNQRyTks0l5K4xwSn-28" style="edgeStyle=none;rounded=0;orthogonalLoop=1;jettySize=auto;html=1;exitX=0.5;exitY=1;exitDx=0;exitDy=0;entryX=0.5;entryY=0;entryDx=0;entryDy=0;startArrow=none;startFill=0;strokeWidth=2;" edge="1" parent="BN_XNQRyTks0l5K4xwSn-1" source="BN_XNQRyTks0l5K4xwSn-24" target="BN_XNQRyTks0l5K4xwSn-26">
          <mxGeometry relative="1" as="geometry" />
        </mxCell>
        <mxCell id="BN_XNQRyTks0l5K4xwSn-29" style="edgeStyle=orthogonalEdgeStyle;rounded=0;orthogonalLoop=1;jettySize=auto;html=1;exitX=0;exitY=0.5;exitDx=0;exitDy=0;entryX=1;entryY=0.25;entryDx=0;entryDy=0;startArrow=classic;startFill=1;strokeWidth=2;" edge="1" parent="BN_XNQRyTks0l5K4xwSn-1" source="BN_XNQRyTks0l5K4xwSn-24" target="BN_XNQRyTks0l5K4xwSn-3">
          <mxGeometry relative="1" as="geometry" />
        </mxCell>
        <mxCell id="BN_XNQRyTks0l5K4xwSn-24" value="Master" style="rounded=1;whiteSpace=wrap;html=1;strokeWidth=2;fillColor=#66B2FF;" vertex="1" parent="BN_XNQRyTks0l5K4xwSn-1">
          <mxGeometry x="560" y="190" width="120" height="60" as="geometry" />
        </mxCell>
        <mxCell id="BN_XNQRyTks0l5K4xwSn-30" style="edgeStyle=orthogonalEdgeStyle;rounded=0;orthogonalLoop=1;jettySize=auto;html=1;exitX=0;exitY=0.5;exitDx=0;exitDy=0;entryX=1.008;entryY=0.535;entryDx=0;entryDy=0;entryPerimeter=0;startArrow=classic;startFill=1;strokeWidth=2;" edge="1" parent="BN_XNQRyTks0l5K4xwSn-1" source="BN_XNQRyTks0l5K4xwSn-25" target="BN_XNQRyTks0l5K4xwSn-3">
          <mxGeometry relative="1" as="geometry">
            <Array as="points">
              <mxPoint x="415" y="390" />
              <mxPoint x="415" y="388" />
            </Array>
          </mxGeometry>
        </mxCell>
        <mxCell id="BN_XNQRyTks0l5K4xwSn-25" value="Slaver" style="rounded=1;whiteSpace=wrap;html=1;strokeWidth=2;fillColor=#66B2FF;" vertex="1" parent="BN_XNQRyTks0l5K4xwSn-1">
          <mxGeometry x="490" y="360" width="120" height="60" as="geometry" />
        </mxCell>
        <mxCell id="BN_XNQRyTks0l5K4xwSn-31" style="edgeStyle=orthogonalEdgeStyle;rounded=0;orthogonalLoop=1;jettySize=auto;html=1;exitX=0.5;exitY=1;exitDx=0;exitDy=0;entryX=1.008;entryY=0.864;entryDx=0;entryDy=0;entryPerimeter=0;startArrow=classic;startFill=1;strokeWidth=2;" edge="1" parent="BN_XNQRyTks0l5K4xwSn-1" source="BN_XNQRyTks0l5K4xwSn-26" target="BN_XNQRyTks0l5K4xwSn-3">
          <mxGeometry relative="1" as="geometry">
            <Array as="points">
              <mxPoint x="720" y="467" />
            </Array>
          </mxGeometry>
        </mxCell>
        <mxCell id="BN_XNQRyTks0l5K4xwSn-26" value="Slaver" style="rounded=1;whiteSpace=wrap;html=1;strokeWidth=2;fillColor=#66B2FF;" vertex="1" parent="BN_XNQRyTks0l5K4xwSn-1">
          <mxGeometry x="660" y="360" width="120" height="60" as="geometry" />
        </mxCell>
      </root>
    </mxGraphModel>
  </diagram>
  <diagram id="2dj4dAk6ivfuqT3m364C" name="高可用架构">
    <mxGraphModel dx="1131" dy="594" grid="1" gridSize="10" guides="1" tooltips="1" connect="1" arrows="1" fold="1" page="1" pageScale="1" pageWidth="827" pageHeight="1169" math="0" shadow="0">
      <root>
        <mxCell id="0_dQO1Zb_ruKB6YeNUj8-0" />
        <mxCell id="0_dQO1Zb_ruKB6YeNUj8-1" parent="0_dQO1Zb_ruKB6YeNUj8-0" />
        <mxCell id="0_dQO1Zb_ruKB6YeNUj8-6" style="edgeStyle=orthogonalEdgeStyle;rounded=0;orthogonalLoop=1;jettySize=auto;html=1;exitX=0.5;exitY=1;exitDx=0;exitDy=0;entryX=0.25;entryY=0;entryDx=0;entryDy=0;startArrow=none;startFill=0;strokeWidth=2;" edge="1" parent="0_dQO1Zb_ruKB6YeNUj8-1" source="0_dQO1Zb_ruKB6YeNUj8-2" target="0_dQO1Zb_ruKB6YeNUj8-4">
          <mxGeometry relative="1" as="geometry" />
        </mxCell>
        <mxCell id="0_dQO1Zb_ruKB6YeNUj8-2" value="Client" style="rounded=1;whiteSpace=wrap;html=1;strokeWidth=2;fillColor=#66B2FF;" vertex="1" parent="0_dQO1Zb_ruKB6YeNUj8-1">
          <mxGeometry x="200" y="180" width="100" height="40" as="geometry" />
        </mxCell>
        <mxCell id="0_dQO1Zb_ruKB6YeNUj8-5" style="edgeStyle=orthogonalEdgeStyle;rounded=0;orthogonalLoop=1;jettySize=auto;html=1;exitX=0.5;exitY=1;exitDx=0;exitDy=0;entryX=0.793;entryY=-0.064;entryDx=0;entryDy=0;entryPerimeter=0;startArrow=none;startFill=0;strokeWidth=2;" edge="1" parent="0_dQO1Zb_ruKB6YeNUj8-1" source="0_dQO1Zb_ruKB6YeNUj8-3" target="0_dQO1Zb_ruKB6YeNUj8-4">
          <mxGeometry relative="1" as="geometry" />
        </mxCell>
        <mxCell id="0_dQO1Zb_ruKB6YeNUj8-3" value="Client" style="rounded=1;whiteSpace=wrap;html=1;strokeWidth=2;fillColor=#66B2FF;" vertex="1" parent="0_dQO1Zb_ruKB6YeNUj8-1">
          <mxGeometry x="560" y="180" width="100" height="40" as="geometry" />
        </mxCell>
        <mxCell id="0_dQO1Zb_ruKB6YeNUj8-4" value="JedisCluster" style="rounded=1;whiteSpace=wrap;html=1;strokeWidth=2;fillColor=#97D077;" vertex="1" parent="0_dQO1Zb_ruKB6YeNUj8-1">
          <mxGeometry x="80" y="260" width="680" height="40" as="geometry" />
        </mxCell>
        <mxCell id="0_dQO1Zb_ruKB6YeNUj8-7" value="" style="rounded=1;whiteSpace=wrap;html=1;strokeWidth=2;fillColor=#FFFFFF;dashed=1;" vertex="1" parent="0_dQO1Zb_ruKB6YeNUj8-1">
          <mxGeometry x="10" y="360" width="810" height="240" as="geometry" />
        </mxCell>
        <mxCell id="0_dQO1Zb_ruKB6YeNUj8-11" style="rounded=0;orthogonalLoop=1;jettySize=auto;html=1;exitX=0.5;exitY=1;exitDx=0;exitDy=0;startArrow=none;startFill=0;strokeWidth=2;entryX=0.5;entryY=0;entryDx=0;entryDy=0;" edge="1" parent="0_dQO1Zb_ruKB6YeNUj8-1" source="0_dQO1Zb_ruKB6YeNUj8-8" target="0_dQO1Zb_ruKB6YeNUj8-9">
          <mxGeometry relative="1" as="geometry" />
        </mxCell>
        <mxCell id="0_dQO1Zb_ruKB6YeNUj8-12" style="edgeStyle=none;rounded=0;orthogonalLoop=1;jettySize=auto;html=1;exitX=0.5;exitY=1;exitDx=0;exitDy=0;entryX=0.5;entryY=0;entryDx=0;entryDy=0;startArrow=none;startFill=0;strokeWidth=2;" edge="1" parent="0_dQO1Zb_ruKB6YeNUj8-1" source="0_dQO1Zb_ruKB6YeNUj8-8" target="0_dQO1Zb_ruKB6YeNUj8-10">
          <mxGeometry relative="1" as="geometry" />
        </mxCell>
        <mxCell id="0_dQO1Zb_ruKB6YeNUj8-8" value="master" style="rounded=1;whiteSpace=wrap;html=1;strokeWidth=2;fillColor=#D4E1F5;" vertex="1" parent="0_dQO1Zb_ruKB6YeNUj8-1">
          <mxGeometry x="130" y="410" width="100" height="50" as="geometry" />
        </mxCell>
        <mxCell id="0_dQO1Zb_ruKB6YeNUj8-9" value="slaver" style="rounded=1;whiteSpace=wrap;html=1;strokeWidth=2;fillColor=#FFCCCC;" vertex="1" parent="0_dQO1Zb_ruKB6YeNUj8-1">
          <mxGeometry x="70" y="520" width="100" height="50" as="geometry" />
        </mxCell>
        <mxCell id="0_dQO1Zb_ruKB6YeNUj8-10" value="slaver" style="rounded=1;whiteSpace=wrap;html=1;strokeWidth=2;fillColor=#FFCCCC;" vertex="1" parent="0_dQO1Zb_ruKB6YeNUj8-1">
          <mxGeometry x="190" y="520" width="100" height="50" as="geometry" />
        </mxCell>
        <mxCell id="0_dQO1Zb_ruKB6YeNUj8-13" style="rounded=0;orthogonalLoop=1;jettySize=auto;html=1;exitX=0.5;exitY=1;exitDx=0;exitDy=0;startArrow=none;startFill=0;strokeWidth=2;entryX=0.5;entryY=0;entryDx=0;entryDy=0;" edge="1" parent="0_dQO1Zb_ruKB6YeNUj8-1" source="0_dQO1Zb_ruKB6YeNUj8-15" target="0_dQO1Zb_ruKB6YeNUj8-16">
          <mxGeometry relative="1" as="geometry" />
        </mxCell>
        <mxCell id="0_dQO1Zb_ruKB6YeNUj8-14" style="edgeStyle=none;rounded=0;orthogonalLoop=1;jettySize=auto;html=1;exitX=0.5;exitY=1;exitDx=0;exitDy=0;entryX=0.5;entryY=0;entryDx=0;entryDy=0;startArrow=none;startFill=0;strokeWidth=2;" edge="1" parent="0_dQO1Zb_ruKB6YeNUj8-1" source="0_dQO1Zb_ruKB6YeNUj8-15" target="0_dQO1Zb_ruKB6YeNUj8-17">
          <mxGeometry relative="1" as="geometry" />
        </mxCell>
        <mxCell id="0_dQO1Zb_ruKB6YeNUj8-15" value="master" style="rounded=1;whiteSpace=wrap;html=1;strokeWidth=2;fillColor=#D4E1F5;" vertex="1" parent="0_dQO1Zb_ruKB6YeNUj8-1">
          <mxGeometry x="390" y="410" width="100" height="50" as="geometry" />
        </mxCell>
        <mxCell id="0_dQO1Zb_ruKB6YeNUj8-16" value="slaver" style="rounded=1;whiteSpace=wrap;html=1;strokeWidth=2;fillColor=#FFCCCC;" vertex="1" parent="0_dQO1Zb_ruKB6YeNUj8-1">
          <mxGeometry x="330" y="520" width="100" height="50" as="geometry" />
        </mxCell>
        <mxCell id="0_dQO1Zb_ruKB6YeNUj8-17" value="slaver" style="rounded=1;whiteSpace=wrap;html=1;strokeWidth=2;fillColor=#FFCCCC;" vertex="1" parent="0_dQO1Zb_ruKB6YeNUj8-1">
          <mxGeometry x="450" y="520" width="100" height="50" as="geometry" />
        </mxCell>
        <mxCell id="0_dQO1Zb_ruKB6YeNUj8-18" style="rounded=0;orthogonalLoop=1;jettySize=auto;html=1;exitX=0.5;exitY=1;exitDx=0;exitDy=0;startArrow=none;startFill=0;strokeWidth=2;entryX=0.5;entryY=0;entryDx=0;entryDy=0;" edge="1" parent="0_dQO1Zb_ruKB6YeNUj8-1" source="0_dQO1Zb_ruKB6YeNUj8-20" target="0_dQO1Zb_ruKB6YeNUj8-21">
          <mxGeometry relative="1" as="geometry" />
        </mxCell>
        <mxCell id="0_dQO1Zb_ruKB6YeNUj8-19" style="edgeStyle=none;rounded=0;orthogonalLoop=1;jettySize=auto;html=1;exitX=0.5;exitY=1;exitDx=0;exitDy=0;entryX=0.5;entryY=0;entryDx=0;entryDy=0;startArrow=none;startFill=0;strokeWidth=2;" edge="1" parent="0_dQO1Zb_ruKB6YeNUj8-1" source="0_dQO1Zb_ruKB6YeNUj8-20" target="0_dQO1Zb_ruKB6YeNUj8-22">
          <mxGeometry relative="1" as="geometry" />
        </mxCell>
        <mxCell id="0_dQO1Zb_ruKB6YeNUj8-20" value="master" style="rounded=1;whiteSpace=wrap;html=1;strokeWidth=2;fillColor=#D4E1F5;" vertex="1" parent="0_dQO1Zb_ruKB6YeNUj8-1">
          <mxGeometry x="640" y="410" width="100" height="50" as="geometry" />
        </mxCell>
        <mxCell id="0_dQO1Zb_ruKB6YeNUj8-21" value="slaver" style="rounded=1;whiteSpace=wrap;html=1;strokeWidth=2;fillColor=#FFCCCC;" vertex="1" parent="0_dQO1Zb_ruKB6YeNUj8-1">
          <mxGeometry x="580" y="520" width="100" height="50" as="geometry" />
        </mxCell>
        <mxCell id="0_dQO1Zb_ruKB6YeNUj8-22" value="slaver" style="rounded=1;whiteSpace=wrap;html=1;strokeWidth=2;fillColor=#FFCCCC;" vertex="1" parent="0_dQO1Zb_ruKB6YeNUj8-1">
          <mxGeometry x="700" y="520" width="100" height="50" as="geometry" />
        </mxCell>
        <mxCell id="0_dQO1Zb_ruKB6YeNUj8-23" value="&lt;b&gt;&lt;font style=&quot;font-size: 20px&quot;&gt;Redis集群&lt;/font&gt;&lt;/b&gt;" style="text;html=1;strokeColor=none;fillColor=none;align=center;verticalAlign=middle;whiteSpace=wrap;rounded=0;" vertex="1" parent="0_dQO1Zb_ruKB6YeNUj8-1">
          <mxGeometry x="20" y="370" width="130" height="20" as="geometry" />
        </mxCell>
        <mxCell id="0_dQO1Zb_ruKB6YeNUj8-24" value="" style="endArrow=classic;html=1;strokeWidth=2;entryX=0.5;entryY=0;entryDx=0;entryDy=0;" edge="1" parent="0_dQO1Zb_ruKB6YeNUj8-1" target="0_dQO1Zb_ruKB6YeNUj8-8">
          <mxGeometry width="50" height="50" relative="1" as="geometry">
            <mxPoint x="180" y="301" as="sourcePoint" />
            <mxPoint x="190" y="130" as="targetPoint" />
          </mxGeometry>
        </mxCell>
        <mxCell id="0_dQO1Zb_ruKB6YeNUj8-25" value="" style="endArrow=classic;html=1;strokeWidth=2;entryX=0.5;entryY=0;entryDx=0;entryDy=0;" edge="1" parent="0_dQO1Zb_ruKB6YeNUj8-1" target="0_dQO1Zb_ruKB6YeNUj8-15">
          <mxGeometry width="50" height="50" relative="1" as="geometry">
            <mxPoint x="440" y="301" as="sourcePoint" />
            <mxPoint x="370" y="420" as="targetPoint" />
          </mxGeometry>
        </mxCell>
        <mxCell id="0_dQO1Zb_ruKB6YeNUj8-26" value="" style="endArrow=classic;html=1;strokeWidth=2;entryX=0.5;entryY=0;entryDx=0;entryDy=0;exitX=0.895;exitY=0.987;exitDx=0;exitDy=0;exitPerimeter=0;" edge="1" parent="0_dQO1Zb_ruKB6YeNUj8-1" source="0_dQO1Zb_ruKB6YeNUj8-4" target="0_dQO1Zb_ruKB6YeNUj8-20">
          <mxGeometry width="50" height="50" relative="1" as="geometry">
            <mxPoint x="690" y="300" as="sourcePoint" />
            <mxPoint x="620" y="420" as="targetPoint" />
          </mxGeometry>
        </mxCell>
        <mxCell id="_ns-ZroYCGP7pkBZJsEE-0" style="edgeStyle=orthogonalEdgeStyle;rounded=0;orthogonalLoop=1;jettySize=auto;html=1;exitX=0.5;exitY=1;exitDx=0;exitDy=0;entryX=0.25;entryY=0;entryDx=0;entryDy=0;startArrow=none;startFill=0;strokeWidth=2;" edge="1" parent="0_dQO1Zb_ruKB6YeNUj8-1" source="_ns-ZroYCGP7pkBZJsEE-1" target="_ns-ZroYCGP7pkBZJsEE-4">
          <mxGeometry relative="1" as="geometry" />
        </mxCell>
        <mxCell id="_ns-ZroYCGP7pkBZJsEE-1" value="Client" style="rounded=1;whiteSpace=wrap;html=1;strokeWidth=2;fillColor=#66B2FF;" vertex="1" parent="0_dQO1Zb_ruKB6YeNUj8-1">
          <mxGeometry x="198" y="830" width="100" height="40" as="geometry" />
        </mxCell>
        <mxCell id="_ns-ZroYCGP7pkBZJsEE-2" style="edgeStyle=orthogonalEdgeStyle;rounded=0;orthogonalLoop=1;jettySize=auto;html=1;exitX=0.5;exitY=1;exitDx=0;exitDy=0;entryX=0.793;entryY=-0.064;entryDx=0;entryDy=0;entryPerimeter=0;startArrow=none;startFill=0;strokeWidth=2;" edge="1" parent="0_dQO1Zb_ruKB6YeNUj8-1" source="_ns-ZroYCGP7pkBZJsEE-3" target="_ns-ZroYCGP7pkBZJsEE-4">
          <mxGeometry relative="1" as="geometry" />
        </mxCell>
        <mxCell id="_ns-ZroYCGP7pkBZJsEE-3" value="Client" style="rounded=1;whiteSpace=wrap;html=1;strokeWidth=2;fillColor=#66B2FF;" vertex="1" parent="0_dQO1Zb_ruKB6YeNUj8-1">
          <mxGeometry x="558" y="830" width="100" height="40" as="geometry" />
        </mxCell>
        <mxCell id="_ns-ZroYCGP7pkBZJsEE-4" value="JedisCluster" style="rounded=1;whiteSpace=wrap;html=1;strokeWidth=2;fillColor=#97D077;" vertex="1" parent="0_dQO1Zb_ruKB6YeNUj8-1">
          <mxGeometry x="78" y="910" width="680" height="40" as="geometry" />
        </mxCell>
        <mxCell id="_ns-ZroYCGP7pkBZJsEE-5" value="" style="rounded=1;whiteSpace=wrap;html=1;strokeWidth=2;fillColor=#FFFFFF;dashed=1;" vertex="1" parent="0_dQO1Zb_ruKB6YeNUj8-1">
          <mxGeometry x="8" y="1010" width="810" height="240" as="geometry" />
        </mxCell>
        <mxCell id="_ns-ZroYCGP7pkBZJsEE-6" style="rounded=0;orthogonalLoop=1;jettySize=auto;html=1;exitX=0.5;exitY=1;exitDx=0;exitDy=0;startArrow=none;startFill=0;strokeWidth=2;entryX=0.5;entryY=0;entryDx=0;entryDy=0;" edge="1" parent="0_dQO1Zb_ruKB6YeNUj8-1" source="_ns-ZroYCGP7pkBZJsEE-8" target="_ns-ZroYCGP7pkBZJsEE-9">
          <mxGeometry relative="1" as="geometry" />
        </mxCell>
        <mxCell id="_ns-ZroYCGP7pkBZJsEE-8" value="master" style="rounded=1;whiteSpace=wrap;html=1;strokeWidth=2;fillColor=#D4E1F5;" vertex="1" parent="0_dQO1Zb_ruKB6YeNUj8-1">
          <mxGeometry x="128" y="1060" width="100" height="50" as="geometry" />
        </mxCell>
        <mxCell id="_ns-ZroYCGP7pkBZJsEE-9" value="slaver" style="rounded=1;whiteSpace=wrap;html=1;strokeWidth=2;fillColor=#FFCCCC;" vertex="1" parent="0_dQO1Zb_ruKB6YeNUj8-1">
          <mxGeometry x="128" y="1169" width="100" height="50" as="geometry" />
        </mxCell>
        <mxCell id="_ns-ZroYCGP7pkBZJsEE-12" style="edgeStyle=none;rounded=0;orthogonalLoop=1;jettySize=auto;html=1;exitX=0.5;exitY=1;exitDx=0;exitDy=0;entryX=0.5;entryY=0;entryDx=0;entryDy=0;startArrow=none;startFill=0;strokeWidth=2;" edge="1" parent="0_dQO1Zb_ruKB6YeNUj8-1" source="_ns-ZroYCGP7pkBZJsEE-13" target="_ns-ZroYCGP7pkBZJsEE-15">
          <mxGeometry relative="1" as="geometry" />
        </mxCell>
        <mxCell id="_ns-ZroYCGP7pkBZJsEE-13" value="master" style="rounded=1;whiteSpace=wrap;html=1;strokeWidth=2;fillColor=#D4E1F5;" vertex="1" parent="0_dQO1Zb_ruKB6YeNUj8-1">
          <mxGeometry x="388" y="1060" width="100" height="50" as="geometry" />
        </mxCell>
        <mxCell id="_ns-ZroYCGP7pkBZJsEE-15" value="slaver" style="rounded=1;whiteSpace=wrap;html=1;strokeWidth=2;fillColor=#FFCCCC;" vertex="1" parent="0_dQO1Zb_ruKB6YeNUj8-1">
          <mxGeometry x="390" y="1169" width="100" height="50" as="geometry" />
        </mxCell>
        <mxCell id="_ns-ZroYCGP7pkBZJsEE-17" style="edgeStyle=none;rounded=0;orthogonalLoop=1;jettySize=auto;html=1;exitX=0.5;exitY=1;exitDx=0;exitDy=0;entryX=0.5;entryY=0;entryDx=0;entryDy=0;startArrow=none;startFill=0;strokeWidth=2;" edge="1" parent="0_dQO1Zb_ruKB6YeNUj8-1" source="_ns-ZroYCGP7pkBZJsEE-18" target="_ns-ZroYCGP7pkBZJsEE-20">
          <mxGeometry relative="1" as="geometry" />
        </mxCell>
        <mxCell id="_ns-ZroYCGP7pkBZJsEE-18" value="master" style="rounded=1;whiteSpace=wrap;html=1;strokeWidth=2;fillColor=#D4E1F5;" vertex="1" parent="0_dQO1Zb_ruKB6YeNUj8-1">
          <mxGeometry x="638" y="1060" width="100" height="50" as="geometry" />
        </mxCell>
        <mxCell id="_ns-ZroYCGP7pkBZJsEE-20" value="slaver" style="rounded=1;whiteSpace=wrap;html=1;strokeWidth=2;fillColor=#FFCCCC;" vertex="1" parent="0_dQO1Zb_ruKB6YeNUj8-1">
          <mxGeometry x="638" y="1169" width="100" height="50" as="geometry" />
        </mxCell>
        <mxCell id="_ns-ZroYCGP7pkBZJsEE-21" value="&lt;b&gt;&lt;font style=&quot;font-size: 20px&quot;&gt;Redis集群&lt;/font&gt;&lt;/b&gt;" style="text;html=1;strokeColor=none;fillColor=none;align=center;verticalAlign=middle;whiteSpace=wrap;rounded=0;" vertex="1" parent="0_dQO1Zb_ruKB6YeNUj8-1">
          <mxGeometry x="18" y="1020" width="130" height="20" as="geometry" />
        </mxCell>
        <mxCell id="_ns-ZroYCGP7pkBZJsEE-22" value="" style="endArrow=classic;html=1;strokeWidth=2;entryX=0.5;entryY=0;entryDx=0;entryDy=0;" edge="1" parent="0_dQO1Zb_ruKB6YeNUj8-1" target="_ns-ZroYCGP7pkBZJsEE-8">
          <mxGeometry width="50" height="50" relative="1" as="geometry">
            <mxPoint x="178" y="951" as="sourcePoint" />
            <mxPoint x="188" y="780" as="targetPoint" />
          </mxGeometry>
        </mxCell>
        <mxCell id="_ns-ZroYCGP7pkBZJsEE-23" value="" style="endArrow=classic;html=1;strokeWidth=2;entryX=0.5;entryY=0;entryDx=0;entryDy=0;" edge="1" parent="0_dQO1Zb_ruKB6YeNUj8-1" target="_ns-ZroYCGP7pkBZJsEE-13">
          <mxGeometry width="50" height="50" relative="1" as="geometry">
            <mxPoint x="438" y="951" as="sourcePoint" />
            <mxPoint x="368" y="1070" as="targetPoint" />
          </mxGeometry>
        </mxCell>
        <mxCell id="_ns-ZroYCGP7pkBZJsEE-24" value="" style="endArrow=classic;html=1;strokeWidth=2;entryX=0.5;entryY=0;entryDx=0;entryDy=0;exitX=0.895;exitY=0.987;exitDx=0;exitDy=0;exitPerimeter=0;" edge="1" parent="0_dQO1Zb_ruKB6YeNUj8-1" source="_ns-ZroYCGP7pkBZJsEE-4" target="_ns-ZroYCGP7pkBZJsEE-18">
          <mxGeometry width="50" height="50" relative="1" as="geometry">
            <mxPoint x="688" y="950" as="sourcePoint" />
            <mxPoint x="618" y="1070" as="targetPoint" />
          </mxGeometry>
        </mxCell>
        <mxCell id="_ns-ZroYCGP7pkBZJsEE-25" style="edgeStyle=orthogonalEdgeStyle;rounded=0;orthogonalLoop=1;jettySize=auto;html=1;exitX=0.5;exitY=1;exitDx=0;exitDy=0;entryX=0.25;entryY=0;entryDx=0;entryDy=0;startArrow=none;startFill=0;strokeWidth=2;" edge="1" parent="0_dQO1Zb_ruKB6YeNUj8-1" source="_ns-ZroYCGP7pkBZJsEE-26" target="_ns-ZroYCGP7pkBZJsEE-29">
          <mxGeometry relative="1" as="geometry" />
        </mxCell>
        <mxCell id="_ns-ZroYCGP7pkBZJsEE-26" value="Client" style="rounded=1;whiteSpace=wrap;html=1;strokeWidth=2;fillColor=#66B2FF;" vertex="1" parent="0_dQO1Zb_ruKB6YeNUj8-1">
          <mxGeometry x="200" y="1544" width="100" height="40" as="geometry" />
        </mxCell>
        <mxCell id="_ns-ZroYCGP7pkBZJsEE-27" style="edgeStyle=orthogonalEdgeStyle;rounded=0;orthogonalLoop=1;jettySize=auto;html=1;exitX=0.5;exitY=1;exitDx=0;exitDy=0;entryX=0.793;entryY=-0.064;entryDx=0;entryDy=0;entryPerimeter=0;startArrow=none;startFill=0;strokeWidth=2;" edge="1" parent="0_dQO1Zb_ruKB6YeNUj8-1" source="_ns-ZroYCGP7pkBZJsEE-28" target="_ns-ZroYCGP7pkBZJsEE-29">
          <mxGeometry relative="1" as="geometry" />
        </mxCell>
        <mxCell id="_ns-ZroYCGP7pkBZJsEE-28" value="Client" style="rounded=1;whiteSpace=wrap;html=1;strokeWidth=2;fillColor=#66B2FF;" vertex="1" parent="0_dQO1Zb_ruKB6YeNUj8-1">
          <mxGeometry x="560" y="1544" width="100" height="40" as="geometry" />
        </mxCell>
        <mxCell id="_ns-ZroYCGP7pkBZJsEE-29" value="JedisCluster" style="rounded=1;whiteSpace=wrap;html=1;strokeWidth=2;fillColor=#97D077;" vertex="1" parent="0_dQO1Zb_ruKB6YeNUj8-1">
          <mxGeometry x="80" y="1624" width="680" height="40" as="geometry" />
        </mxCell>
        <mxCell id="_ns-ZroYCGP7pkBZJsEE-30" value="" style="rounded=1;whiteSpace=wrap;html=1;strokeWidth=2;fillColor=#FFFFFF;dashed=1;" vertex="1" parent="0_dQO1Zb_ruKB6YeNUj8-1">
          <mxGeometry x="10" y="1724" width="810" height="240" as="geometry" />
        </mxCell>
        <mxCell id="_ns-ZroYCGP7pkBZJsEE-31" style="rounded=0;orthogonalLoop=1;jettySize=auto;html=1;exitX=0.5;exitY=1;exitDx=0;exitDy=0;startArrow=none;startFill=0;strokeWidth=2;entryX=0.5;entryY=0;entryDx=0;entryDy=0;" edge="1" parent="0_dQO1Zb_ruKB6YeNUj8-1" source="_ns-ZroYCGP7pkBZJsEE-32" target="_ns-ZroYCGP7pkBZJsEE-33">
          <mxGeometry relative="1" as="geometry" />
        </mxCell>
        <mxCell id="_ns-ZroYCGP7pkBZJsEE-32" value="master" style="rounded=1;whiteSpace=wrap;html=1;strokeWidth=2;fillColor=#D4E1F5;" vertex="1" parent="0_dQO1Zb_ruKB6YeNUj8-1">
          <mxGeometry x="130" y="1774" width="100" height="50" as="geometry" />
        </mxCell>
        <mxCell id="_ns-ZroYCGP7pkBZJsEE-33" value="slaver" style="rounded=1;whiteSpace=wrap;html=1;strokeWidth=2;fillColor=#FFCCCC;" vertex="1" parent="0_dQO1Zb_ruKB6YeNUj8-1">
          <mxGeometry x="130" y="1883" width="100" height="50" as="geometry" />
        </mxCell>
        <mxCell id="_ns-ZroYCGP7pkBZJsEE-34" style="edgeStyle=none;rounded=0;orthogonalLoop=1;jettySize=auto;html=1;exitX=0.5;exitY=1;exitDx=0;exitDy=0;entryX=0.5;entryY=0;entryDx=0;entryDy=0;startArrow=none;startFill=0;strokeWidth=2;" edge="1" parent="0_dQO1Zb_ruKB6YeNUj8-1" source="_ns-ZroYCGP7pkBZJsEE-35" target="_ns-ZroYCGP7pkBZJsEE-36">
          <mxGeometry relative="1" as="geometry" />
        </mxCell>
        <mxCell id="_ns-ZroYCGP7pkBZJsEE-35" value="master" style="rounded=1;whiteSpace=wrap;html=1;strokeWidth=2;fillColor=#D4E1F5;" vertex="1" parent="0_dQO1Zb_ruKB6YeNUj8-1">
          <mxGeometry x="298" y="1774" width="100" height="50" as="geometry" />
        </mxCell>
        <mxCell id="_ns-ZroYCGP7pkBZJsEE-36" value="slaver" style="rounded=1;whiteSpace=wrap;html=1;strokeWidth=2;fillColor=#FFCCCC;" vertex="1" parent="0_dQO1Zb_ruKB6YeNUj8-1">
          <mxGeometry x="298" y="1883" width="100" height="50" as="geometry" />
        </mxCell>
        <mxCell id="_ns-ZroYCGP7pkBZJsEE-37" style="edgeStyle=none;rounded=0;orthogonalLoop=1;jettySize=auto;html=1;exitX=0.5;exitY=1;exitDx=0;exitDy=0;entryX=0.5;entryY=0;entryDx=0;entryDy=0;startArrow=none;startFill=0;strokeWidth=2;" edge="1" parent="0_dQO1Zb_ruKB6YeNUj8-1" source="_ns-ZroYCGP7pkBZJsEE-38" target="_ns-ZroYCGP7pkBZJsEE-39">
          <mxGeometry relative="1" as="geometry" />
        </mxCell>
        <mxCell id="_ns-ZroYCGP7pkBZJsEE-38" value="master" style="rounded=1;whiteSpace=wrap;html=1;strokeWidth=2;fillColor=#D4E1F5;" vertex="1" parent="0_dQO1Zb_ruKB6YeNUj8-1">
          <mxGeometry x="470" y="1774" width="100" height="50" as="geometry" />
        </mxCell>
        <mxCell id="_ns-ZroYCGP7pkBZJsEE-39" value="slaver" style="rounded=1;whiteSpace=wrap;html=1;strokeWidth=2;fillColor=#FFCCCC;" vertex="1" parent="0_dQO1Zb_ruKB6YeNUj8-1">
          <mxGeometry x="470" y="1883" width="100" height="50" as="geometry" />
        </mxCell>
        <mxCell id="_ns-ZroYCGP7pkBZJsEE-40" value="&lt;b&gt;&lt;font style=&quot;font-size: 20px&quot;&gt;Redis集群&lt;/font&gt;&lt;/b&gt;" style="text;html=1;strokeColor=none;fillColor=none;align=center;verticalAlign=middle;whiteSpace=wrap;rounded=0;" vertex="1" parent="0_dQO1Zb_ruKB6YeNUj8-1">
          <mxGeometry x="20" y="1734" width="130" height="20" as="geometry" />
        </mxCell>
        <mxCell id="_ns-ZroYCGP7pkBZJsEE-41" value="" style="endArrow=classic;html=1;strokeWidth=2;entryX=0.5;entryY=0;entryDx=0;entryDy=0;" edge="1" parent="0_dQO1Zb_ruKB6YeNUj8-1" target="_ns-ZroYCGP7pkBZJsEE-32">
          <mxGeometry width="50" height="50" relative="1" as="geometry">
            <mxPoint x="179.99999999999977" y="1665" as="sourcePoint" />
            <mxPoint x="190" y="1494" as="targetPoint" />
          </mxGeometry>
        </mxCell>
        <mxCell id="_ns-ZroYCGP7pkBZJsEE-42" value="" style="endArrow=classic;html=1;strokeWidth=2;entryX=0.5;entryY=0;entryDx=0;entryDy=0;exitX=0.392;exitY=1.008;exitDx=0;exitDy=0;exitPerimeter=0;" edge="1" parent="0_dQO1Zb_ruKB6YeNUj8-1" target="_ns-ZroYCGP7pkBZJsEE-35" source="_ns-ZroYCGP7pkBZJsEE-29">
          <mxGeometry width="50" height="50" relative="1" as="geometry">
            <mxPoint x="439.9999999999998" y="1665" as="sourcePoint" />
            <mxPoint x="370" y="1784" as="targetPoint" />
          </mxGeometry>
        </mxCell>
        <mxCell id="_ns-ZroYCGP7pkBZJsEE-43" value="" style="endArrow=classic;html=1;strokeWidth=2;entryX=0.5;entryY=0;entryDx=0;entryDy=0;exitX=0.645;exitY=0.991;exitDx=0;exitDy=0;exitPerimeter=0;" edge="1" parent="0_dQO1Zb_ruKB6YeNUj8-1" source="_ns-ZroYCGP7pkBZJsEE-29" target="_ns-ZroYCGP7pkBZJsEE-38">
          <mxGeometry width="50" height="50" relative="1" as="geometry">
            <mxPoint x="690" y="1664" as="sourcePoint" />
            <mxPoint x="620" y="1784" as="targetPoint" />
          </mxGeometry>
        </mxCell>
        <mxCell id="_ns-ZroYCGP7pkBZJsEE-44" style="edgeStyle=none;rounded=0;orthogonalLoop=1;jettySize=auto;html=1;exitX=0.5;exitY=1;exitDx=0;exitDy=0;entryX=0.5;entryY=0;entryDx=0;entryDy=0;startArrow=none;startFill=0;strokeWidth=2;dashed=1;" edge="1" parent="0_dQO1Zb_ruKB6YeNUj8-1" source="_ns-ZroYCGP7pkBZJsEE-45" target="_ns-ZroYCGP7pkBZJsEE-46">
          <mxGeometry relative="1" as="geometry" />
        </mxCell>
        <mxCell id="_ns-ZroYCGP7pkBZJsEE-45" value="master" style="rounded=1;whiteSpace=wrap;html=1;strokeWidth=2;fillColor=#D4E1F5;dashed=1;" vertex="1" parent="0_dQO1Zb_ruKB6YeNUj8-1">
          <mxGeometry x="640" y="1774" width="100" height="50" as="geometry" />
        </mxCell>
        <mxCell id="_ns-ZroYCGP7pkBZJsEE-46" value="slaver" style="rounded=1;whiteSpace=wrap;html=1;strokeWidth=2;fillColor=#FFCCCC;dashed=1;" vertex="1" parent="0_dQO1Zb_ruKB6YeNUj8-1">
          <mxGeometry x="640" y="1883" width="100" height="50" as="geometry" />
        </mxCell>
        <mxCell id="_ns-ZroYCGP7pkBZJsEE-47" value="" style="endArrow=classic;html=1;strokeWidth=2;entryX=0.5;entryY=0;entryDx=0;entryDy=0;exitX=0.893;exitY=1.001;exitDx=0;exitDy=0;exitPerimeter=0;dashed=1;" edge="1" parent="0_dQO1Zb_ruKB6YeNUj8-1" target="_ns-ZroYCGP7pkBZJsEE-45" source="_ns-ZroYCGP7pkBZJsEE-29">
          <mxGeometry width="50" height="50" relative="1" as="geometry">
            <mxPoint x="690" y="1680" as="sourcePoint" />
            <mxPoint x="790" y="1784" as="targetPoint" />
          </mxGeometry>
        </mxCell>
      </root>
    </mxGraphModel>
  </diagram>
  <diagram id="xB97zk3wd8gwG-Ntjw_G" name="主从架构">
    <mxGraphModel dx="1131" dy="594" grid="1" gridSize="10" guides="1" tooltips="1" connect="1" arrows="1" fold="1" page="1" pageScale="1" pageWidth="827" pageHeight="1169" math="0" shadow="0">
      <root>
        <mxCell id="Eeb2s6xXUlz7WF6P4SOf-0" />
        <mxCell id="Eeb2s6xXUlz7WF6P4SOf-1" parent="Eeb2s6xXUlz7WF6P4SOf-0" />
        <mxCell id="Eeb2s6xXUlz7WF6P4SOf-2" style="rounded=0;orthogonalLoop=1;jettySize=auto;html=1;exitX=0.5;exitY=1;exitDx=0;exitDy=0;startArrow=none;startFill=0;strokeWidth=2;entryX=0.5;entryY=0;entryDx=0;entryDy=0;" edge="1" parent="Eeb2s6xXUlz7WF6P4SOf-1" source="Eeb2s6xXUlz7WF6P4SOf-4" target="Eeb2s6xXUlz7WF6P4SOf-5">
          <mxGeometry relative="1" as="geometry" />
        </mxCell>
        <mxCell id="Eeb2s6xXUlz7WF6P4SOf-3" style="edgeStyle=none;rounded=0;orthogonalLoop=1;jettySize=auto;html=1;exitX=0.5;exitY=1;exitDx=0;exitDy=0;entryX=0.5;entryY=0;entryDx=0;entryDy=0;startArrow=none;startFill=0;strokeWidth=2;" edge="1" parent="Eeb2s6xXUlz7WF6P4SOf-1" source="Eeb2s6xXUlz7WF6P4SOf-4" target="Eeb2s6xXUlz7WF6P4SOf-6">
          <mxGeometry relative="1" as="geometry" />
        </mxCell>
        <mxCell id="Eeb2s6xXUlz7WF6P4SOf-4" value="master" style="rounded=1;whiteSpace=wrap;html=1;strokeWidth=2;fillColor=#D4E1F5;" vertex="1" parent="Eeb2s6xXUlz7WF6P4SOf-1">
          <mxGeometry x="300" y="180" width="100" height="50" as="geometry" />
        </mxCell>
        <mxCell id="Eeb2s6xXUlz7WF6P4SOf-5" value="slaver" style="rounded=1;whiteSpace=wrap;html=1;strokeWidth=2;fillColor=#FFCCCC;" vertex="1" parent="Eeb2s6xXUlz7WF6P4SOf-1">
          <mxGeometry x="240" y="290" width="100" height="50" as="geometry" />
        </mxCell>
        <mxCell id="Eeb2s6xXUlz7WF6P4SOf-6" value="slaver" style="rounded=1;whiteSpace=wrap;html=1;strokeWidth=2;fillColor=#FFCCCC;" vertex="1" parent="Eeb2s6xXUlz7WF6P4SOf-1">
          <mxGeometry x="360" y="290" width="100" height="50" as="geometry" />
        </mxCell>
      </root>
    </mxGraphModel>
  </diagram>
</mxfile>
